<svg width="341" height="181" viewBox="0 0 341 181" fill="none" xmlns="http://www.w3.org/2000/svg">
<path d="M25.9265 104V78.5455H36.4414C38.3472 78.5455 39.992 78.9183 41.3757 79.6641C42.7678 80.4015 43.8408 81.4331 44.5948 82.7589C45.3488 84.0763 45.7259 85.6093 45.7259 87.3576C45.7259 89.1142 45.3406 90.6513 44.57 91.9688C43.8076 93.2779 42.718 94.293 41.3011 95.0138C39.8842 95.7347 38.2022 96.0952 36.255 96.0952H29.767V91.2479H35.1115C36.0395 91.2479 36.8143 91.0863 37.4357 90.7631C38.0655 90.44 38.5419 89.9884 38.8651 89.4084C39.1882 88.8201 39.3498 88.1365 39.3498 87.3576C39.3498 86.5704 39.1882 85.891 38.8651 85.3192C38.5419 84.7392 38.0655 84.2918 37.4357 83.9769C36.806 83.6621 36.0313 83.5046 35.1115 83.5046H32.0788V104H25.9265ZM54.3384 104H47.7262L56.3146 78.5455H64.5053L73.0937 104H66.4815L60.5032 84.9588H60.3043L54.3384 104ZM53.4559 93.9822H67.277V98.6555H53.4559V93.9822ZM88.393 104H78.9843V78.5455H88.3806C90.9741 78.5455 93.2072 79.055 95.0798 80.0742C96.9607 81.0851 98.4108 82.5434 99.43 84.4492C100.449 86.3467 100.959 88.6171 100.959 91.2603C100.959 93.9118 100.449 96.1905 99.43 98.0962C98.4191 100.002 96.9732 101.464 95.0923 102.484C93.2113 103.495 90.9783 104 88.393 104ZM85.1366 98.755H88.1569C89.5821 98.755 90.7877 98.5147 91.7737 98.0341C92.768 97.5452 93.5179 96.7539 94.0234 95.6602C94.5371 94.5581 94.794 93.0915 94.794 91.2603C94.794 89.4291 94.5371 87.9708 94.0234 86.8853C93.5096 85.7915 92.7515 85.0044 91.7489 84.5238C90.7545 84.0349 89.5282 83.7905 88.0699 83.7905H85.1366V98.755ZM107.701 104V78.5455H125.449V83.5419H113.853V88.7621H124.542V93.771H113.853V99.0036H125.449V104H107.701ZM132.452 104V78.5455H138.605V99.0036H149.194V104H132.452ZM157.729 104H154.497L163.844 78.5455H167.026L176.372 104H173.141L165.534 82.5724H165.335L157.729 104ZM158.922 94.0568H171.948V96.7912H158.922V94.0568ZM183.487 104V78.5455H198.75V81.2798H186.57V89.8807H197.607V92.6151H186.57V104H183.487ZM207.179 104V78.5455H215.78C217.769 78.5455 219.401 78.8852 220.677 79.5646C221.953 80.2358 222.898 81.1597 223.511 82.3363C224.124 83.5129 224.431 84.8511 224.431 86.3509C224.431 87.8506 224.124 89.1805 223.511 90.3406C222.898 91.5006 221.957 92.412 220.69 93.0749C219.422 93.7295 217.802 94.0568 215.83 94.0568H208.87V91.2727H215.73C217.089 91.2727 218.183 91.0739 219.012 90.6761C219.849 90.2784 220.453 89.715 220.826 88.9858C221.207 88.2483 221.398 87.37 221.398 86.3509C221.398 85.3317 221.207 84.4409 220.826 83.6786C220.445 82.9163 219.836 82.328 218.999 81.9137C218.162 81.4911 217.056 81.2798 215.681 81.2798H210.262V104H207.179ZM219.161 92.5653L225.425 104H221.845L215.681 92.5653H219.161ZM235.799 78.5455V104H232.717V78.5455H235.799ZM265.613 86.5H262.53C262.348 85.6134 262.029 84.8345 261.573 84.1634C261.126 83.4922 260.579 82.9287 259.933 82.473C259.295 82.009 258.586 81.661 257.807 81.429C257.028 81.197 256.216 81.081 255.371 81.081C253.83 81.081 252.434 81.4704 251.183 82.2493C249.94 83.0282 248.949 84.1758 248.212 85.6921C247.483 87.2085 247.118 89.0687 247.118 91.2727C247.118 93.4768 247.483 95.337 248.212 96.8533C248.949 98.3697 249.94 99.5173 251.183 100.296C252.434 101.075 253.83 101.464 255.371 101.464C256.216 101.464 257.028 101.348 257.807 101.116C258.586 100.884 259.295 100.541 259.933 100.085C260.579 99.6209 261.126 99.0533 261.573 98.3821C262.029 97.7027 262.348 96.9238 262.53 96.0455H265.613C265.381 97.3464 264.958 98.5105 264.345 99.538C263.732 100.565 262.969 101.44 262.058 102.161C261.146 102.873 260.123 103.416 258.988 103.789C257.861 104.162 256.655 104.348 255.371 104.348C253.2 104.348 251.27 103.818 249.579 102.757C247.889 101.696 246.559 100.188 245.59 98.233C244.62 96.2775 244.135 93.9574 244.135 91.2727C244.135 88.5881 244.62 86.268 245.59 84.3125C246.559 82.357 247.889 80.849 249.579 79.7884C251.27 78.7277 253.2 78.1974 255.371 78.1974C256.655 78.1974 257.861 78.3839 258.988 78.7567C260.123 79.1296 261.146 79.6765 262.058 80.3974C262.969 81.11 263.732 81.98 264.345 83.0075C264.958 84.0266 265.381 85.1908 265.613 86.5ZM274.788 104H271.556L280.903 78.5455H284.084L293.431 104H290.199L282.593 82.5724H282.394L274.788 104ZM275.981 94.0568H289.006V96.7912H275.981V94.0568Z" fill="white"/>
<path d="M16.317 92.0079C16.317 96.3606 12.7788 99.8916 8.41753 99.8916C4.05621 99.8916 0.518066 96.3606 0.518066 92.0079C0.518066 87.6553 4.05621 84.1243 8.41753 84.1243C12.7788 84.128 16.317 87.6553 16.317 92.0079Z" fill="#0DB73F"/>
<path d="M16.317 124.281C16.317 128.634 12.7788 132.165 8.41753 132.165C4.05621 132.165 0.518066 128.634 0.518066 124.281C0.518066 119.929 4.05621 116.397 8.41753 116.397C12.7788 116.397 16.317 119.929 16.317 124.281Z" fill="#0DB73F"/>
<path d="M41.0008 116.397C45.3621 116.397 48.9002 119.929 48.9002 124.281C48.9002 128.634 45.3621 132.165 41.0008 132.165C36.6395 132.165 33.1013 128.634 33.1013 124.281C33.1013 119.929 36.6395 116.397 41.0008 116.397Z" fill="#0DB73F"/>
<path d="M75.0645 116.397C79.4258 116.397 82.9639 119.929 82.9639 124.281C82.9639 128.634 79.4258 132.165 75.0645 132.165C70.7032 132.165 67.165 128.634 67.165 124.281C67.165 119.929 70.7032 116.397 75.0645 116.397Z" fill="#0DB73F"/>
<path d="M100.734 124.281C100.734 119.929 104.272 116.397 108.633 116.397C112.994 116.397 116.533 119.929 116.533 124.281C116.533 128.634 112.994 132.165 108.633 132.165C104.272 132.165 100.734 128.634 100.734 124.281Z" fill="#F73B02"/>
<path d="M41.0008 148.671C45.3621 148.671 48.9002 152.202 48.9002 156.554C48.9002 160.907 45.3621 164.438 41.0008 164.438C36.6395 164.438 33.1013 160.907 33.1013 156.554C33.1013 152.198 36.6395 148.671 41.0008 148.671Z" fill="#0DB73F"/>
<path d="M75.0645 148.671C79.4258 148.671 82.9639 152.202 82.9639 156.554C82.9639 160.907 79.4258 164.438 75.0645 164.438C70.7032 164.438 67.165 160.907 67.165 156.554C67.165 152.198 70.7032 148.671 75.0645 148.671Z" fill="#0DB73F"/>
<path d="M100.734 156.551C100.734 152.198 104.272 148.667 108.633 148.667C112.994 148.667 116.533 152.198 116.533 156.551C116.533 160.903 112.994 164.434 108.633 164.434C104.272 164.434 100.734 160.907 100.734 156.551Z" fill="#F73B02"/>
<path d="M134.307 156.551C134.307 152.198 137.845 148.667 142.206 148.667C146.567 148.667 150.106 152.198 150.106 156.551C150.106 160.903 146.567 164.434 142.206 164.434C137.845 164.434 134.307 160.907 134.307 156.551Z" fill="#FFFC20"/>
<path d="M16.317 58.2611C16.317 62.6137 12.7788 66.1448 8.41753 66.1448C4.05621 66.1448 0.518066 62.6137 0.518066 58.2611C0.518066 53.9085 4.05621 50.3774 8.41753 50.3774C12.7788 50.3774 16.317 53.9085 16.317 58.2611Z" fill="#0DB73F"/>
<path d="M41.0008 50.3774C45.3621 50.3774 48.9002 53.9085 48.9002 58.2611C48.9002 62.6137 45.3621 66.1448 41.0008 66.1448C36.6395 66.1448 33.1013 62.6137 33.1013 58.2611C33.1013 53.9085 36.6395 50.3774 41.0008 50.3774Z" fill="#F73B02"/>
<path d="M75.0645 50.3774C79.4258 50.3774 82.9639 53.9085 82.9639 58.2611C82.9639 62.6137 79.4258 66.1448 75.0645 66.1448C70.7032 66.1448 67.165 62.6137 67.165 58.2611C67.165 53.9085 70.7032 50.3774 75.0645 50.3774Z" fill="#F73B02"/>
<path d="M100.734 58.2611C100.734 53.9085 104.272 50.3774 108.633 50.3774C112.994 50.3774 116.533 53.9085 116.533 58.2611C116.533 62.6137 112.994 66.1448 108.633 66.1448C104.272 66.1448 100.734 62.6137 100.734 58.2611Z" fill="#F73B02"/>
<path d="M41.0008 17.1201C45.3621 17.1201 48.9002 20.6512 48.9002 25.0038C48.9002 29.3564 45.3621 32.8875 41.0008 32.8875C36.6395 32.8875 33.1013 29.3564 33.1013 25.0038C33.1013 20.6512 36.6395 17.1201 41.0008 17.1201Z" fill="#F73B02"/>
<path d="M75.0645 17.1201C79.4258 17.1201 82.9639 20.6512 82.9639 25.0038C82.9639 29.3564 79.4258 32.8875 75.0645 32.8875C70.7032 32.8875 67.165 29.3564 67.165 25.0038C67.165 20.6512 70.7032 17.1201 75.0645 17.1201Z" fill="#F73B02"/>
<path d="M100.734 25.0038C100.734 20.6512 104.272 17.1201 108.633 17.1201C112.994 17.1201 116.533 20.6512 116.533 25.0038C116.533 29.3564 112.994 32.8875 108.633 32.8875C104.272 32.8875 100.734 29.3564 100.734 25.0038Z" fill="#F73B02"/>
<path d="M134.307 25.0038C134.307 20.6512 137.845 17.1201 142.206 17.1201C146.567 17.1201 150.106 20.6512 150.106 25.0038C150.106 29.3564 146.567 32.8875 142.206 32.8875C137.845 32.8875 134.307 29.3564 134.307 25.0038Z" fill="#FFFC20"/>
<path d="M24.8321 33.2568C29.1934 33.2568 32.7315 36.7879 32.7315 41.1405C32.7315 45.4931 29.1934 49.0242 24.8321 49.0242C20.4708 49.0242 16.9326 45.4931 16.9326 41.1405C16.9326 36.7879 20.4708 33.2568 24.8321 33.2568Z" fill="#F73B02"/>
<path d="M58.8953 33.2568C63.2566 33.2568 66.7948 36.7879 66.7948 41.1405C66.7948 45.4931 63.2566 49.0242 58.8953 49.0242C54.534 49.0242 50.9958 45.4931 50.9958 41.1405C50.9958 36.7879 54.534 33.2568 58.8953 33.2568Z" fill="#F73B02"/>
<path d="M84.5688 41.1405C84.5688 36.7879 88.107 33.2568 92.4683 33.2568C96.8296 33.2568 100.368 36.7879 100.368 41.1405C100.368 45.4931 96.8296 49.0242 92.4683 49.0242C88.1032 49.0204 84.5688 45.4931 84.5688 41.1405Z" fill="#F73B02"/>
<path d="M118.138 41.1405C118.138 36.7879 121.676 33.2568 126.037 33.2568C130.398 33.2568 133.937 36.7879 133.937 41.1405C133.937 45.4931 130.398 49.0242 126.037 49.0242C121.672 49.0204 118.138 45.4931 118.138 41.1405Z" fill="#F73B02"/>
<path d="M152.201 41.1405C152.201 36.7879 155.739 33.2568 160.101 33.2568C164.462 33.2568 168 36.7879 168 41.1405C168 45.4931 164.462 49.0242 160.101 49.0242C155.739 49.0242 152.201 45.4931 152.201 41.1405Z" fill="#FFFC20"/>
<path d="M24.5865 132.286C28.9478 132.286 32.4859 135.817 32.4859 140.169C32.4859 144.522 28.9478 148.053 24.5865 148.053C20.2252 148.053 16.687 144.522 16.687 140.169C16.687 135.817 20.2214 132.286 24.5865 132.286Z" fill="#0DB73F"/>
<path d="M58.6502 132.286C63.0115 132.286 66.5496 135.817 66.5496 140.169C66.5496 144.522 63.0115 148.053 58.6502 148.053C54.2889 148.053 50.7507 144.522 50.7507 140.169C50.7507 135.817 54.2851 132.286 58.6502 132.286Z" fill="#0DB73F"/>
<path d="M84.3196 140.169C84.3196 135.817 87.8577 132.286 92.219 132.286C96.5804 132.286 100.119 135.817 100.119 140.169C100.119 144.522 96.5804 148.053 92.219 148.053C87.8577 148.053 84.3196 144.526 84.3196 140.169Z" fill="#F73B02"/>
<path d="M117.892 140.169C117.892 135.817 121.43 132.286 125.792 132.286C130.153 132.286 133.691 135.817 133.691 140.169C133.691 144.522 130.153 148.053 125.792 148.053C121.426 148.053 117.892 144.526 117.892 140.169Z" fill="#F73B02"/>
<path d="M151.956 140.169C151.956 135.817 155.494 132.286 159.855 132.286C164.217 132.286 167.755 135.817 167.755 140.169C167.755 144.522 164.217 148.053 159.855 148.053C155.49 148.053 151.956 144.526 151.956 140.169Z" fill="#FFFC20"/>
<path d="M58.6502 164.804C63.0115 164.804 66.5496 168.335 66.5496 172.687C66.5496 177.04 63.0115 180.571 58.6502 180.571C54.2889 180.571 50.7507 177.04 50.7507 172.687C50.7507 168.335 54.2851 164.804 58.6502 164.804Z" fill="#0DB73F"/>
<path d="M84.3196 172.687C84.3196 168.335 87.8577 164.804 92.219 164.804C96.5804 164.804 100.119 168.335 100.119 172.687C100.119 177.04 96.5804 180.571 92.219 180.571C87.8577 180.571 84.3196 177.04 84.3196 172.687Z" fill="#F73B02"/>
<path d="M117.892 172.687C117.892 168.335 121.43 164.804 125.792 164.804C130.153 164.804 133.691 168.335 133.691 172.687C133.691 177.04 130.153 180.571 125.792 180.571C121.426 180.571 117.892 177.04 117.892 172.687Z" fill="#FFFC20"/>
<path d="M58.6502 0C63.0115 0 66.5496 3.53108 66.5496 7.88369C66.5496 12.2363 63.0115 15.7674 58.6502 15.7674C54.2889 15.7674 50.7507 12.2363 50.7507 7.88369C50.7507 3.53108 54.2851 0 58.6502 0Z" fill="#F73B02"/>
<path d="M84.3196 7.88369C84.3196 3.53108 87.8577 0 92.219 0C96.5804 0 100.119 3.53108 100.119 7.88369C100.119 12.2363 96.5804 15.7674 92.219 15.7674C87.8577 15.7636 84.3196 12.2363 84.3196 7.88369Z" fill="#FFFC20"/>
<path d="M117.892 7.88369C117.892 3.53108 121.43 0 125.792 0C130.153 0 133.691 3.53108 133.691 7.88369C133.691 12.2363 130.153 15.7674 125.792 15.7674C121.426 15.7636 117.892 12.2363 117.892 7.88369Z" fill="#FFFC20"/>
</svg>
