<svg width="141" height="65" viewBox="0 0 141 65" fill="none" xmlns="http://www.w3.org/2000/svg">
<path d="M25.2048 33.9977C25.2048 34.3697 25.0834 34.6772 24.8404 34.9202C24.6051 35.1555 24.3014 35.2732 23.9294 35.2732H19.7272V42.3452H18.1442V24.5228H23.9294C24.3014 24.5228 24.6051 24.6405 24.8404 24.8759C25.0834 25.1112 25.2048 25.4149 25.2048 25.7869V33.9977ZM23.6219 33.8611V25.9236H19.7272V33.8611H23.6219ZM36.0623 42.3452H34.4907L33.8643 38.3822H30.3226L29.6963 42.3452H28.1703V42.2997L31.3476 24.4773H32.9077L36.0623 42.3452ZM33.6594 36.9814L32.0992 27.3243L30.5276 36.9814H33.6594ZM46.7261 39.1224C46.7261 40.0638 46.4148 40.8382 45.7922 41.4456C45.1773 42.0453 44.3991 42.3452 43.4577 42.3452H39.3807V24.5228H43.4577C44.4067 24.5228 45.1887 24.8265 45.8036 25.4339C46.4186 26.0337 46.7261 26.8043 46.7261 27.7457V39.1224ZM45.1431 38.9629V27.8823C45.1431 27.2977 44.9571 26.827 44.5851 26.4702C44.2207 26.1058 43.7462 25.9236 43.1616 25.9236H40.9637V40.9445H43.0705C43.6854 40.9445 44.1827 40.7699 44.5623 40.4206C44.9495 40.0638 45.1431 39.5779 45.1431 38.9629ZM56.5358 42.3452H50.6823V24.5228H56.4674V25.9236H52.2652V32.5742H56.0916V33.9977H52.2652V40.9445H56.5358V42.3452ZM65.8786 42.3452H60.1845V24.5228H61.7675V40.9445H65.8786V42.3452ZM82.1385 42.3452H80.5669L79.9406 38.3822H76.3989L75.7726 42.3452H74.2465V42.2997L77.4238 24.4773H78.984L82.1385 42.3452ZM79.7356 36.9814L78.1754 27.3243L76.6039 36.9814H79.7356ZM91.1966 25.9236H87.0399V32.6881H90.8663V34.1116H87.0399V42.3452H85.457V24.5228H91.1966V25.9236ZM102.134 42.3452H100.471L97.1571 32.802L97.3735 32.4831H100.198V25.9236H96.1322V42.3452H94.5492V24.5228H100.517C100.889 24.5228 101.192 24.6405 101.428 24.8759C101.663 25.1112 101.781 25.4149 101.781 25.7869V32.5514C101.781 33.4094 101.204 33.8383 100.05 33.8383C99.9358 33.8383 99.7688 33.8345 99.5486 33.8269C99.3285 33.8117 99.169 33.8041 99.0703 33.8041C100.095 36.6436 101.116 39.4906 102.134 42.3452ZM107.343 42.3452H105.76V24.5228H107.343V42.3452ZM118.621 41.0811C118.621 41.4531 118.5 41.7568 118.257 41.9922C118.014 42.2275 117.707 42.3452 117.335 42.3452H112.745C112.373 42.3452 112.069 42.2275 111.834 41.9922C111.599 41.7568 111.481 41.4531 111.481 41.0811V25.7869C111.481 25.4149 111.599 25.1112 111.834 24.8759C112.069 24.6405 112.373 24.5228 112.745 24.5228H117.335C117.707 24.5228 118.014 24.6405 118.257 24.8759C118.5 25.1112 118.621 25.4149 118.621 25.7869V29.9322H117.027V25.9236H113.064V40.9445H117.027V36.5601H118.621V41.0811ZM129.741 42.3452H128.169L127.543 38.3822H124.001L123.375 42.3452H121.849V42.2997L125.026 24.4773H126.586L129.741 42.3452ZM127.338 36.9814L125.778 27.3243L124.206 36.9814H127.338Z" fill="#0A0A0A"/>
<path d="M5.67741 33.0635C5.67741 34.6276 4.40596 35.8965 2.8387 35.8965C1.27145 35.8965 0 34.6276 0 33.0635C0 31.4994 1.27145 30.2305 2.8387 30.2305C4.40596 30.2318 5.67741 31.4994 5.67741 33.0635Z" fill="#0DB73F"/>
<path d="M5.67741 44.6609C5.67741 46.225 4.40596 47.494 2.8387 47.494C1.27145 47.494 0 46.225 0 44.6609C0 43.0968 1.27145 41.8279 2.8387 41.8279C4.40596 41.8279 5.67741 43.0968 5.67741 44.6609Z" fill="#0DB73F"/>
<path d="M14.5477 53.4255C16.1149 53.4255 17.3864 54.6944 17.3864 56.2586C17.3864 57.8227 16.1149 59.0916 14.5477 59.0916C12.9804 59.0916 11.709 57.8227 11.709 56.2586C11.709 54.6931 12.9804 53.4255 14.5477 53.4255Z" fill="#0DB73F"/>
<path d="M26.7887 53.4255C28.3559 53.4255 29.6274 54.6944 29.6274 56.2586C29.6274 57.8227 28.3559 59.0916 26.7887 59.0916C25.2214 59.0916 23.95 57.8227 23.95 56.2586C23.95 54.6931 25.2214 53.4255 26.7887 53.4255Z" fill="#0DB73F"/>
<path d="M36.0129 56.2574C36.0129 54.6932 37.2844 53.4243 38.8516 53.4243C40.4189 53.4243 41.6903 54.6932 41.6903 56.2574C41.6903 57.8215 40.4189 59.0904 38.8516 59.0904C37.2844 59.0904 36.0129 57.8228 36.0129 56.2574Z" fill="#F63B02"/>
<path d="M48.0774 56.2574C48.0774 54.6932 49.3488 53.4243 50.9161 53.4243C52.4833 53.4243 53.7548 54.6932 53.7548 56.2574C53.7548 57.8215 52.4833 59.0904 50.9161 59.0904C49.3488 59.0904 48.0774 57.8228 48.0774 56.2574Z" fill="#FFFC20"/>
<path d="M5.67741 20.9363C5.67741 22.5004 4.40596 23.7693 2.8387 23.7693C1.27145 23.7693 0 22.5004 0 20.9363C0 19.3722 1.27145 18.1033 2.8387 18.1033C4.40596 18.1033 5.67741 19.3722 5.67741 20.9363Z" fill="#0DB73F"/>
<path d="M14.5477 6.15234C16.1149 6.15234 17.3864 7.42125 17.3864 8.98538C17.3864 10.5495 16.1149 11.8184 14.5477 11.8184C12.9804 11.8184 11.709 10.5495 11.709 8.98538C11.709 7.42125 12.9804 6.15234 14.5477 6.15234Z" fill="#F63B02"/>
<path d="M26.7887 6.15234C28.3559 6.15234 29.6274 7.42125 29.6274 8.98538C29.6274 10.5495 28.3559 11.8184 26.7887 11.8184C25.2214 11.8184 23.95 10.5495 23.95 8.98538C23.95 7.42125 25.2214 6.15234 26.7887 6.15234Z" fill="#F63B02"/>
<path d="M36.0129 8.98538C36.0129 7.42125 37.2844 6.15234 38.8516 6.15234C40.4189 6.15234 41.6903 7.42125 41.6903 8.98538C41.6903 10.5495 40.4189 11.8184 38.8516 11.8184C37.2844 11.8184 36.0129 10.5495 36.0129 8.98538Z" fill="#F63B02"/>
<path d="M48.0774 8.98538C48.0774 7.42125 49.3488 6.15234 50.9161 6.15234C52.4833 6.15234 53.7548 7.42125 53.7548 8.98538C53.7548 10.5495 52.4833 11.8184 50.9161 11.8184C49.3488 11.8184 48.0774 10.5495 48.0774 8.98538Z" fill="#FFFC20"/>
<path d="M8.73739 11.9512C10.3046 11.9512 11.5761 13.2201 11.5761 14.7842C11.5761 16.3483 10.3046 17.6172 8.73739 17.6172C7.17013 17.6172 5.89868 16.3483 5.89868 14.7842C5.89868 13.2201 7.17013 11.9512 8.73739 11.9512Z" fill="#F63B02"/>
<path d="M20.9781 11.9512C22.5454 11.9512 23.8168 13.2201 23.8168 14.7842C23.8168 16.3483 22.5454 17.6172 20.9781 17.6172C19.4109 17.6172 18.1394 16.3483 18.1394 14.7842C18.1394 13.2201 19.4109 11.9512 20.9781 11.9512Z" fill="#F63B02"/>
<path d="M30.2039 14.7842C30.2039 13.2201 31.4753 11.9512 33.0426 11.9512C34.6098 11.9512 35.8813 13.2201 35.8813 14.7842C35.8813 16.3483 34.6098 17.6172 33.0426 17.6172C31.4739 17.6159 30.2039 16.3483 30.2039 14.7842Z" fill="#F63B02"/>
<path d="M42.2671 14.7842C42.2671 13.2201 43.5385 11.9512 45.1058 11.9512C46.6731 11.9512 47.9445 13.2201 47.9445 14.7842C47.9445 16.3483 46.6731 17.6172 45.1058 17.6172C43.5372 17.6159 42.2671 16.3483 42.2671 14.7842Z" fill="#F63B02"/>
<path d="M54.5081 14.7842C54.5081 13.2201 55.7795 11.9512 57.3468 11.9512C58.914 11.9512 60.1855 13.2201 60.1855 14.7842C60.1855 16.3483 58.914 17.6172 57.3468 17.6172C55.7795 17.6172 54.5081 16.3483 54.5081 14.7842Z" fill="#FFFC20"/>
<path d="M11.7089 26.8677C11.7089 28.4318 10.4375 29.7007 8.87019 29.7007C7.30294 29.7007 6.03149 28.4318 6.03149 26.8677C6.03149 25.3036 7.30294 24.0347 8.87019 24.0347C10.4375 24.0347 11.7089 25.3022 11.7089 26.8677Z" fill="#0DB73F"/>
<path d="M8.64901 35.9412C10.2163 35.9412 11.4877 37.2101 11.4877 38.7742C11.4877 40.3383 10.2163 41.6072 8.64901 41.6072C7.08175 41.6072 5.8103 40.3383 5.8103 38.7742C5.8103 37.2087 7.08039 35.9412 8.64901 35.9412Z" fill="#0DB73F"/>
<path d="M8.64901 47.5374C10.2163 47.5374 11.4877 48.8063 11.4877 50.3704C11.4877 51.9345 10.2163 53.2034 8.64901 53.2034C7.08175 53.2034 5.8103 51.9345 5.8103 50.3704C5.8103 48.8063 7.08039 47.5374 8.64901 47.5374Z" fill="#0DB73F"/>
<path d="M20.89 47.5374C22.4572 47.5374 23.7287 48.8063 23.7287 50.3704C23.7287 51.9345 22.4572 53.2034 20.89 53.2034C19.3227 53.2034 18.0513 51.9345 18.0513 50.3704C18.0513 48.8063 19.3214 47.5374 20.89 47.5374Z" fill="#0DB73F"/>
<path d="M30.1145 50.3704C30.1145 48.8063 31.386 47.5374 32.9532 47.5374C34.5205 47.5374 35.7919 48.8063 35.7919 50.3704C35.7919 51.9345 34.5205 53.2034 32.9532 53.2034C31.386 53.2034 30.1145 51.9359 30.1145 50.3704Z" fill="#F63B02"/>
<path d="M42.179 50.3704C42.179 48.8063 43.4504 47.5374 45.0177 47.5374C46.5849 47.5374 47.8564 48.8063 47.8564 50.3704C47.8564 51.9345 46.5849 53.2034 45.0177 53.2034C43.449 53.2034 42.179 51.9359 42.179 50.3704Z" fill="#F63B02"/>
<path d="M54.4197 50.3704C54.4197 48.8063 55.6911 47.5374 57.2584 47.5374C58.8256 47.5374 60.0971 48.8063 60.0971 50.3704C60.0971 51.9345 58.8256 53.2034 57.2584 53.2034C55.6898 53.2034 54.4197 51.9359 54.4197 50.3704Z" fill="#FFFC20"/>
<path d="M20.89 59.2229C22.4572 59.2229 23.7287 60.4918 23.7287 62.0559C23.7287 63.6201 22.4572 64.889 20.89 64.889C19.3227 64.889 18.0513 63.6201 18.0513 62.0559C18.0513 60.4918 19.3214 59.2229 20.89 59.2229Z" fill="#0DB73F"/>
<path d="M30.1145 62.0559C30.1145 60.4918 31.386 59.2229 32.9532 59.2229C34.5205 59.2229 35.7919 60.4918 35.7919 62.0559C35.7919 63.6201 34.5205 64.889 32.9532 64.889C31.386 64.889 30.1145 63.6201 30.1145 62.0559Z" fill="#F63B02"/>
<path d="M42.179 62.0559C42.179 60.4918 43.4504 59.2229 45.0177 59.2229C46.5849 59.2229 47.8564 60.4918 47.8564 62.0559C47.8564 63.6201 46.5849 64.889 45.0177 64.889C43.449 64.889 42.179 63.6201 42.179 62.0559Z" fill="#FFFC20"/>
<path d="M20.89 0C22.4572 0 23.7287 1.26891 23.7287 2.83304C23.7287 4.39717 22.4572 5.66607 20.89 5.66607C19.3227 5.66607 18.0513 4.39717 18.0513 2.83304C18.0513 1.26891 19.3214 0 20.89 0Z" fill="#F63B02"/>
<path d="M30.1145 2.83304C30.1145 1.26891 31.386 0 32.9532 0C34.5205 0 35.7919 1.26891 35.7919 2.83304C35.7919 4.39717 34.5205 5.66607 32.9532 5.66607C31.386 5.66472 30.1145 4.39717 30.1145 2.83304Z" fill="#FFFC20"/>
<path d="M42.179 2.83304C42.179 1.26891 43.4504 0 45.0177 0C46.5849 0 47.8564 1.26891 47.8564 2.83304C47.8564 4.39717 46.5849 5.66607 45.0177 5.66607C43.449 5.66472 42.179 4.39717 42.179 2.83304Z" fill="#FFFC20"/>
</svg>
