<svg width="600" height="303" viewBox="0 0 600 303" fill="none" xmlns="http://www.w3.org/2000/svg">
<path d="M161.218 156.821C161.218 159.877 159.721 161.406 156.727 161.406H144.826V179.21H137.478V130.067H156.727C159.721 130.067 161.218 131.574 161.218 134.589V156.821ZM153.807 155.094V136.378H144.826V155.094H153.807ZM197.763 179.21H190.478L189.002 169.884H179.801L178.326 179.21H171.072V179.085L180.587 130.004H188.311L197.763 179.21ZM187.966 163.572L184.386 141.403L180.775 163.572H187.966ZM232.801 169.947C232.801 172.836 231.943 175.107 230.226 176.761C228.51 178.394 226.197 179.21 223.287 179.21H208.308V130.067H223.287C226.197 130.067 228.51 130.904 230.226 132.579C231.943 134.233 232.801 136.504 232.801 139.393V169.947ZM225.422 168.722V140.492C225.422 137.75 223.988 136.378 221.12 136.378H215.656V172.899H220.932C223.925 172.899 225.422 171.507 225.422 168.722ZM265.327 179.21H244.948V130.067H265.139V136.567H252.296V150.917H263.349V157.292H252.296V172.71H265.327V179.21ZM296.126 179.21H276.814V130.067H284.162V172.647H296.126V179.21ZM346.765 179.21H342.431L340.704 168.283H330.938L329.211 179.21H325.003V179.085L333.764 129.941H338.066L346.765 179.21ZM340.139 164.42L335.837 137.791L331.503 164.42H340.139ZM374.957 133.929H363.496V152.582H374.047V156.507H363.496V179.21H359.131V130.067H374.957V133.929ZM408.331 179.21H403.746L394.609 152.896L395.205 152.017H402.993V133.929H391.782V179.21H387.418V130.067H403.872C404.898 130.067 405.735 130.391 406.384 131.04C407.033 131.689 407.358 132.526 407.358 133.552V152.205C407.358 154.571 405.767 155.753 402.585 155.753C402.271 155.753 401.81 155.743 401.203 155.722C400.596 155.68 400.156 155.659 399.884 155.659C402.71 163.489 405.526 171.339 408.331 179.21ZM425.91 179.21H421.545V130.067H425.91V179.21ZM460.226 175.725C460.226 176.751 459.891 177.588 459.221 178.237C458.551 178.886 457.703 179.21 456.677 179.21H444.022C442.997 179.21 442.159 178.886 441.51 178.237C440.861 177.588 440.537 176.751 440.537 175.725V133.552C440.537 132.526 440.861 131.689 441.51 131.04C442.159 130.391 442.997 130.067 444.022 130.067H456.677C457.703 130.067 458.551 130.391 459.221 131.04C459.891 131.689 460.226 132.526 460.226 133.552V144.983H455.829V133.929H444.902V175.348H455.829V163.258H460.226V175.725ZM494.102 179.21H489.769L488.041 168.283H478.275L476.548 179.21H472.341V179.085L481.102 129.941H485.404L494.102 179.21ZM487.476 164.42L483.174 137.791L478.841 164.42H487.476Z" fill="white"/>
<path d="M26.4781 154.2C26.4781 161.495 20.5484 167.413 13.2391 167.413C5.92974 167.413 0 161.495 0 154.2C0 146.905 5.92974 140.988 13.2391 140.988C20.5484 140.994 26.4781 146.905 26.4781 154.2Z" fill="#0DB73F"/>
<path d="M67.847 140.994C75.1563 140.994 81.086 146.912 81.086 154.206C81.086 161.501 75.1563 167.419 67.847 167.419C60.5376 167.419 54.6079 161.501 54.6079 154.206C54.6079 146.905 60.5376 140.994 67.847 140.994Z" fill="#0DB73F"/>
<path d="M26.4781 208.289C26.4781 215.583 20.5484 221.501 13.2391 221.501C5.92974 221.501 0 215.583 0 208.289C0 200.994 5.92974 195.076 13.2391 195.076C20.5484 195.076 26.4781 200.994 26.4781 208.289Z" fill="#0DB73F"/>
<path d="M67.847 195.076C75.1563 195.076 81.086 200.994 81.086 208.289C81.086 215.583 75.1563 221.501 67.847 221.501C60.5376 221.501 54.6079 215.583 54.6079 208.289C54.6079 200.994 60.5376 195.076 67.847 195.076Z" fill="#0DB73F"/>
<path d="M124.936 195.076C132.245 195.076 138.175 200.994 138.175 208.289C138.175 215.583 132.245 221.501 124.936 221.501C117.626 221.501 111.697 215.583 111.697 208.289C111.697 200.994 117.626 195.076 124.936 195.076Z" fill="#0DB73F"/>
<path d="M167.956 208.289C167.956 200.994 173.886 195.076 181.195 195.076C188.505 195.076 194.434 200.994 194.434 208.289C194.434 215.583 188.505 221.501 181.195 221.501C173.886 221.501 167.956 215.583 167.956 208.289Z" fill="#F73B02"/>
<path d="M224.222 208.289C224.222 200.994 230.152 195.076 237.461 195.076C244.771 195.076 250.7 200.994 250.7 208.289C250.7 215.583 244.771 221.501 237.461 221.501C230.152 221.501 224.222 215.583 224.222 208.289Z" fill="#F73B02"/>
<path d="M281.311 208.289C281.311 200.994 287.241 195.076 294.55 195.076C301.859 195.076 307.789 200.994 307.789 208.289C307.789 215.583 301.859 221.501 294.55 221.501C287.234 221.501 281.311 215.583 281.311 208.289Z" fill="#FFFC20"/>
<path d="M67.847 249.164C75.1563 249.164 81.086 255.082 81.086 262.377C81.086 269.671 75.1563 275.589 67.847 275.589C60.5376 275.589 54.6079 269.671 54.6079 262.377C54.6079 255.076 60.5376 249.164 67.847 249.164Z" fill="#0DB73F"/>
<path d="M124.936 249.164C132.245 249.164 138.175 255.082 138.175 262.377C138.175 269.671 132.245 275.589 124.936 275.589C117.626 275.589 111.697 269.671 111.697 262.377C111.697 255.076 117.626 249.164 124.936 249.164Z" fill="#0DB73F"/>
<path d="M167.956 262.371C167.956 255.076 173.886 249.158 181.195 249.158C188.505 249.158 194.434 255.076 194.434 262.371C194.434 269.665 188.505 275.583 181.195 275.583C173.886 275.583 167.956 269.672 167.956 262.371Z" fill="#F73B02"/>
<path d="M224.222 262.371C224.222 255.076 230.152 249.158 237.461 249.158C244.771 249.158 250.7 255.076 250.7 262.371C250.7 269.665 244.771 275.583 237.461 275.583C230.152 275.583 224.222 269.672 224.222 262.371Z" fill="#FFFC20"/>
<path d="M26.4781 97.6421C26.4781 104.937 20.5484 110.855 13.2391 110.855C5.92974 110.855 0 104.937 0 97.6421C0 90.3473 5.92974 84.4294 13.2391 84.4294C20.5484 84.4294 26.4781 90.3473 26.4781 97.6421Z" fill="#0DB73F"/>
<path d="M67.847 84.4294C75.1563 84.4294 81.086 90.3473 81.086 97.6421C81.086 104.937 75.1563 110.855 67.847 110.855C60.5376 110.855 54.6079 104.937 54.6079 97.6421C54.6079 90.3473 60.5376 84.4294 67.847 84.4294Z" fill="#F73B02"/>
<path d="M124.936 84.4294C132.245 84.4294 138.175 90.3473 138.175 97.6421C138.175 104.937 132.245 110.855 124.936 110.855C117.626 110.855 111.697 104.937 111.697 97.6421C111.697 90.3473 117.626 84.4294 124.936 84.4294Z" fill="#F73B02"/>
<path d="M167.956 97.6423C167.956 90.3476 173.886 84.4297 181.195 84.4297C188.505 84.4297 194.434 90.3476 194.434 97.6423C194.434 104.937 188.505 110.855 181.195 110.855C173.886 110.855 167.956 104.937 167.956 97.6423Z" fill="#F73B02"/>
<path d="M224.222 97.6421C224.222 90.3473 230.152 84.4294 237.461 84.4294C244.771 84.4294 250.7 90.3473 250.7 97.6421C250.7 104.937 244.771 110.855 237.461 110.855C230.152 110.855 224.222 104.937 224.222 97.6421Z" fill="#F73B02"/>
<path d="M281.311 97.6421C281.311 90.3473 287.241 84.4294 294.55 84.4294C301.859 84.4294 307.789 90.3473 307.789 97.6421C307.789 104.937 301.859 110.855 294.55 110.855C287.234 110.855 281.311 104.937 281.311 97.6421Z" fill="#FFFC20"/>
<path d="M67.847 28.6926C75.1563 28.6926 81.086 34.6105 81.086 41.9053C81.086 49.2 75.1563 55.1179 67.847 55.1179C60.5376 55.1179 54.6079 49.2 54.6079 41.9053C54.6079 34.6105 60.5376 28.6926 67.847 28.6926Z" fill="#F73B02"/>
<path d="M124.936 28.6926C132.245 28.6926 138.175 34.6105 138.175 41.9053C138.175 49.2 132.245 55.1179 124.936 55.1179C117.626 55.1179 111.697 49.2 111.697 41.9053C111.697 34.6105 117.626 28.6926 124.936 28.6926Z" fill="#F73B02"/>
<path d="M167.956 41.9055C167.956 34.6108 173.886 28.6929 181.195 28.6929C188.505 28.6929 194.434 34.6108 194.434 41.9055C194.434 49.2002 188.505 55.1181 181.195 55.1181C173.886 55.1181 167.956 49.2002 167.956 41.9055Z" fill="#F73B02"/>
<path d="M224.222 41.9053C224.222 34.6105 230.152 28.6926 237.461 28.6926C244.771 28.6926 250.7 34.6105 250.7 41.9053C250.7 49.2 244.771 55.1179 237.461 55.1179C230.152 55.1179 224.222 49.2 224.222 41.9053Z" fill="#FFFC20"/>
<path d="M40.7488 55.7368C48.0582 55.7368 53.9879 61.6547 53.9879 68.9494C53.9879 76.2442 48.0582 82.1621 40.7488 82.1621C33.4395 82.1621 27.5098 76.2442 27.5098 68.9494C27.5098 61.6547 33.4395 55.7368 40.7488 55.7368Z" fill="#F73B02"/>
<path d="M97.8375 55.7368C105.147 55.7368 111.077 61.6547 111.077 68.9494C111.077 76.2442 105.147 82.1621 97.8375 82.1621C90.5281 82.1621 84.5984 76.2442 84.5984 68.9494C84.5984 61.6547 90.5281 55.7368 97.8375 55.7368Z" fill="#F73B02"/>
<path d="M140.865 68.9494C140.865 61.6547 146.794 55.7368 154.104 55.7368C161.413 55.7368 167.343 61.6547 167.343 68.9494C167.343 76.2442 161.413 82.1621 154.104 82.1621C146.788 82.1558 140.865 76.2442 140.865 68.9494Z" fill="#F73B02"/>
<path d="M197.124 68.9494C197.124 61.6547 203.054 55.7368 210.363 55.7368C217.672 55.7368 223.602 61.6547 223.602 68.9494C223.602 76.2442 217.672 82.1621 210.363 82.1621C203.047 82.1558 197.124 76.2442 197.124 68.9494Z" fill="#F73B02"/>
<path d="M254.213 68.9494C254.213 61.6547 260.142 55.7368 267.452 55.7368C274.761 55.7368 280.691 61.6547 280.691 68.9494C280.691 76.2442 274.761 82.1621 267.452 82.1621C260.142 82.1621 254.213 76.2442 254.213 68.9494Z" fill="#FFFC20"/>
<path d="M54.608 125.305C54.608 132.6 48.6783 138.518 41.3689 138.518C34.0596 138.518 28.1299 132.6 28.1299 125.305C28.1299 118.01 34.0596 112.093 41.3689 112.093C48.6783 112.093 54.608 118.004 54.608 125.305Z" fill="#0DB73F"/>
<path d="M95.9768 112.093C103.286 112.093 109.216 118.01 109.216 125.305C109.216 132.6 103.286 138.518 95.9768 138.518C88.6675 138.518 82.7378 132.6 82.7378 125.305C82.7378 118.004 88.6675 112.093 95.9768 112.093Z" fill="#F73B02"/>
<path d="M40.3375 167.621C47.6468 167.621 53.5765 173.539 53.5765 180.834C53.5765 188.128 47.6468 194.046 40.3375 194.046C33.0281 194.046 27.0984 188.128 27.0984 180.834C27.0984 173.533 33.0218 167.621 40.3375 167.621Z" fill="#0DB73F"/>
<path d="M97.4261 167.621C104.735 167.621 110.665 173.539 110.665 180.834C110.665 188.128 104.735 194.046 97.4261 194.046C90.1168 194.046 84.187 188.128 84.187 180.834C84.187 173.533 90.1104 167.621 97.4261 167.621Z" fill="#0DB73F"/>
<path d="M40.3375 221.703C47.6468 221.703 53.5765 227.621 53.5765 234.916C53.5765 242.211 47.6468 248.128 40.3375 248.128C33.0281 248.128 27.0984 242.211 27.0984 234.916C27.0984 227.621 33.0218 221.703 40.3375 221.703Z" fill="#0DB73F"/>
<path d="M97.4261 221.703C104.735 221.703 110.665 227.621 110.665 234.916C110.665 242.211 104.735 248.128 97.4261 248.128C90.1168 248.128 84.187 242.211 84.187 234.916C84.187 227.621 90.1104 221.703 97.4261 221.703Z" fill="#0DB73F"/>
<path d="M140.447 234.916C140.447 227.621 146.376 221.703 153.686 221.703C160.995 221.703 166.925 227.621 166.925 234.916C166.925 242.211 160.995 248.128 153.686 248.128C146.376 248.128 140.447 242.217 140.447 234.916Z" fill="#F73B02"/>
<path d="M196.713 234.916C196.713 227.621 202.642 221.703 209.952 221.703C217.261 221.703 223.191 227.621 223.191 234.916C223.191 242.211 217.261 248.128 209.952 248.128C202.636 248.128 196.713 242.217 196.713 234.916Z" fill="#F73B02"/>
<path d="M253.801 234.916C253.801 227.621 259.731 221.703 267.04 221.703C274.35 221.703 280.279 227.621 280.279 234.916C280.279 242.211 274.35 248.128 267.04 248.128C259.725 248.128 253.801 242.217 253.801 234.916Z" fill="#FFFC20"/>
<path d="M97.4261 276.202C104.735 276.202 110.665 282.12 110.665 289.415C110.665 296.71 104.735 302.627 97.4261 302.627C90.1168 302.627 84.187 296.71 84.187 289.415C84.187 282.12 90.1104 276.202 97.4261 276.202Z" fill="#0DB73F"/>
<path d="M140.447 289.415C140.447 282.12 146.376 276.202 153.686 276.202C160.995 276.202 166.925 282.12 166.925 289.415C166.925 296.71 160.995 302.627 153.686 302.627C146.376 302.627 140.447 296.71 140.447 289.415Z" fill="#F73B02"/>
<path d="M196.713 289.415C196.713 282.12 202.642 276.202 209.952 276.202C217.261 276.202 223.191 282.12 223.191 289.415C223.191 296.71 217.261 302.627 209.952 302.627C202.636 302.627 196.713 296.71 196.713 289.415Z" fill="#FFFC20"/>
<path d="M97.4261 0C104.735 0 110.665 5.9179 110.665 13.2126C110.665 20.5074 104.735 26.4253 97.4261 26.4253C90.1168 26.4253 84.187 20.5074 84.187 13.2126C84.187 5.9179 90.1104 0 97.4261 0Z" fill="#F73B02"/>
<path d="M140.447 13.2126C140.447 5.9179 146.376 0 153.686 0C160.995 0 166.925 5.9179 166.925 13.2126C166.925 20.5074 160.995 26.4253 153.686 26.4253C146.376 26.4189 140.447 20.5074 140.447 13.2126Z" fill="#FFFC20"/>
<path d="M196.713 13.2126C196.713 5.9179 202.642 0 209.952 0C217.261 0 223.191 5.9179 223.191 13.2126C223.191 20.5074 217.261 26.4253 209.952 26.4253C202.636 26.4189 196.713 20.5074 196.713 13.2126Z" fill="#FFFC20"/>
</svg>
