<svg width="566" height="303" viewBox="0 0 566 303" fill="none" xmlns="http://www.w3.org/2000/svg">
<path d="M153.992 155.648C153.992 159.655 152.03 161.658 148.105 161.658H132.503V185H122.87V120.574H148.105C152.03 120.574 153.992 122.55 153.992 126.502V155.648ZM144.277 153.384V128.848H132.503V153.384H144.277ZM199.373 185H189.822L187.887 172.773H175.825L173.89 185H164.381V184.835L176.854 120.491H186.982L199.373 185ZM186.529 164.499L181.836 135.435L177.101 164.499H186.529ZM242.778 172.856C242.778 176.643 241.652 179.621 239.402 181.789C237.151 183.93 234.119 185 230.304 185H210.667V120.574H230.304C234.119 120.574 237.151 121.671 239.402 123.867C241.652 126.035 242.778 129.013 242.778 132.8V172.856ZM233.103 171.25V134.241C233.103 130.646 231.223 128.848 227.463 128.848H220.3V176.725H227.216C231.141 176.725 233.103 174.9 233.103 171.25ZM282.889 185H256.172V120.574H282.642V129.095H265.805V147.909H280.296V156.265H265.805V176.478H282.889V185ZM320.736 185H295.419V120.574H305.052V176.396H320.736V185ZM359.613 185H353.932L351.668 170.674H338.865L336.6 185H331.084V184.835L342.57 120.409H348.21L359.613 185ZM350.927 165.61L345.287 130.701L339.606 165.61H350.927ZM394.043 125.637H379.017V150.09H392.849V155.236H379.017V185H373.295V120.574H394.043V125.637ZM435.266 185H429.256L417.276 150.502L418.058 149.349H428.268V125.637H413.571V185H407.849V120.574H429.421C430.765 120.574 431.863 120.999 432.714 121.85C433.565 122.701 433.99 123.798 433.99 125.143V149.596C433.99 152.698 431.904 154.248 427.733 154.248C427.321 154.248 426.717 154.235 425.921 154.207C425.125 154.152 424.549 154.125 424.192 154.125C427.897 164.389 431.589 174.681 435.266 185ZM455.782 185H450.06V120.574H455.782V185ZM498.24 180.43C498.24 181.775 497.801 182.873 496.923 183.724C496.045 184.575 494.933 185 493.588 185H476.998C475.653 185 474.555 184.575 473.705 183.724C472.854 182.873 472.428 181.775 472.428 180.43V125.143C472.428 123.798 472.854 122.701 473.705 121.85C474.555 120.999 475.653 120.574 476.998 120.574H493.588C494.933 120.574 496.045 120.999 496.923 121.85C497.801 122.701 498.24 123.798 498.24 125.143V140.128H492.477V125.637H478.151V179.936H492.477V164.087H498.24V180.43ZM540.122 185H534.441L532.177 170.674H519.374L517.11 185H511.593V184.835L523.079 120.409H528.719L540.122 185ZM531.436 165.61L525.796 130.701L520.115 165.61H531.436Z" fill="white"/>
<path d="M26.4781 154.2C26.4781 161.495 20.5484 167.413 13.2391 167.413C5.92974 167.413 0 161.495 0 154.2C0 146.905 5.92974 140.988 13.2391 140.988C20.5484 140.994 26.4781 146.905 26.4781 154.2Z" fill="#0DB73F"/>
<path d="M81.4781 154.2C81.4781 161.495 75.5484 167.413 68.2391 167.413C60.9297 167.413 55 161.495 55 154.2C55 146.905 60.9297 140.988 68.2391 140.988C75.5484 140.994 81.4781 146.905 81.4781 154.2Z" fill="#0DB73F"/>
<path d="M26.4781 208.289C26.4781 215.583 20.5484 221.501 13.2391 221.501C5.92974 221.501 0 215.583 0 208.289C0 200.994 5.92974 195.076 13.2391 195.076C20.5484 195.076 26.4781 200.994 26.4781 208.289Z" fill="#0DB73F"/>
<path d="M139.478 208.289C139.478 215.583 133.548 221.501 126.239 221.501C118.93 221.501 113 215.583 113 208.289C113 200.994 118.93 195.076 126.239 195.076C133.548 195.076 139.478 200.994 139.478 208.289Z" fill="#0DB73F"/>
<path d="M81.4781 208.289C81.4781 215.583 75.5484 221.501 68.2391 221.501C60.9297 221.501 55 215.583 55 208.289C55 200.994 60.9297 195.076 68.2391 195.076C75.5484 195.076 81.4781 200.994 81.4781 208.289Z" fill="#0DB73F"/>
<path d="M194.478 208.289C194.478 215.583 188.548 221.501 181.239 221.501C173.93 221.501 168 215.583 168 208.289C168 200.994 173.93 195.076 181.239 195.076C188.548 195.076 194.478 200.994 194.478 208.289Z" fill="#F63B02"/>
<path d="M250.478 208.289C250.478 215.583 244.548 221.501 237.239 221.501C229.93 221.501 224 215.583 224 208.289C224 200.994 229.93 195.076 237.239 195.076C244.548 195.076 250.478 200.994 250.478 208.289Z" fill="#F63B02"/>
<path d="M307.478 208.289C307.478 215.583 301.548 221.501 294.239 221.501C286.93 221.501 281 215.583 281 208.289C281 200.994 286.93 195.076 294.239 195.076C301.548 195.076 307.478 200.994 307.478 208.289Z" fill="#FFFC20"/>
<path d="M67.847 249.164C75.1563 249.164 81.086 255.082 81.086 262.377C81.086 269.671 75.1563 275.589 67.847 275.589C60.5376 275.589 54.6079 269.671 54.6079 262.377C54.6079 255.076 60.5376 249.164 67.847 249.164Z" fill="#0DB73F"/>
<path d="M124.936 249.164C132.245 249.164 138.175 255.082 138.175 262.377C138.175 269.671 132.245 275.589 124.936 275.589C117.626 275.589 111.697 269.671 111.697 262.377C111.697 255.076 117.626 249.164 124.936 249.164Z" fill="#0DB73F"/>
<path d="M167.956 262.371C167.956 255.076 173.886 249.158 181.195 249.158C188.505 249.158 194.434 255.076 194.434 262.371C194.434 269.665 188.505 275.583 181.195 275.583C173.886 275.583 167.956 269.672 167.956 262.371Z" fill="#F73B02"/>
<path d="M224.222 262.371C224.222 255.076 230.152 249.158 237.461 249.158C244.771 249.158 250.7 255.076 250.7 262.371C250.7 269.665 244.771 275.583 237.461 275.583C230.152 275.583 224.222 269.672 224.222 262.371Z" fill="#FFFC20"/>
<path d="M26.4781 97.6421C26.4781 104.937 20.5484 110.855 13.2391 110.855C5.92974 110.855 0 104.937 0 97.6421C0 90.3473 5.92974 84.4294 13.2391 84.4294C20.5484 84.4294 26.4781 90.3473 26.4781 97.6421Z" fill="#0DB73F"/>
<path d="M81.4781 97.6421C81.4781 104.937 75.5484 110.855 68.2391 110.855C60.9297 110.855 55 104.937 55 97.6421C55 90.3473 60.9297 84.4294 68.2391 84.4294C75.5484 84.4294 81.4781 90.3473 81.4781 97.6421Z" fill="#F63B02"/>
<path d="M138.478 97.6421C138.478 104.937 132.548 110.855 125.239 110.855C117.93 110.855 112 104.937 112 97.6421C112 90.3473 117.93 84.4294 125.239 84.4294C132.548 84.4294 138.478 90.3473 138.478 97.6421Z" fill="#F63B02"/>
<path d="M194.478 97.6421C194.478 104.937 188.548 110.855 181.239 110.855C173.93 110.855 168 104.937 168 97.6421C168 90.3473 173.93 84.4294 181.239 84.4294C188.548 84.4294 194.478 90.3473 194.478 97.6421Z" fill="#F63B02"/>
<path d="M250.478 97.6421C250.478 104.937 244.548 110.855 237.239 110.855C229.93 110.855 224 104.937 224 97.6421C224 90.3473 229.93 84.4294 237.239 84.4294C244.548 84.4294 250.478 90.3473 250.478 97.6421Z" fill="#F63B02"/>
<path d="M307.478 97.6421C307.478 104.937 301.548 110.855 294.239 110.855C286.93 110.855 281 104.937 281 97.6421C281 90.3473 286.93 84.4294 294.239 84.4294C301.548 84.4294 307.478 90.3473 307.478 97.6421Z" fill="#FFFC20"/>
<path d="M67.847 28.6926C75.1563 28.6926 81.086 34.6105 81.086 41.9053C81.086 49.2 75.1563 55.1179 67.847 55.1179C60.5376 55.1179 54.6079 49.2 54.6079 41.9053C54.6079 34.6105 60.5376 28.6926 67.847 28.6926Z" fill="#F73B02"/>
<path d="M124.936 28.6926C132.245 28.6926 138.175 34.6105 138.175 41.9053C138.175 49.2 132.245 55.1179 124.936 55.1179C117.626 55.1179 111.697 49.2 111.697 41.9053C111.697 34.6105 117.626 28.6926 124.936 28.6926Z" fill="#F73B02"/>
<path d="M167.956 41.9055C167.956 34.6108 173.886 28.6929 181.195 28.6929C188.505 28.6929 194.434 34.6108 194.434 41.9055C194.434 49.2002 188.505 55.1181 181.195 55.1181C173.886 55.1181 167.956 49.2002 167.956 41.9055Z" fill="#F73B02"/>
<path d="M224.222 41.9053C224.222 34.6105 230.152 28.6926 237.461 28.6926C244.771 28.6926 250.7 34.6105 250.7 41.9053C250.7 49.2 244.771 55.1179 237.461 55.1179C230.152 55.1179 224.222 49.2 224.222 41.9053Z" fill="#FFFC20"/>
<path d="M40.7488 55.7368C48.0582 55.7368 53.9879 61.6547 53.9879 68.9494C53.9879 76.2442 48.0582 82.1621 40.7488 82.1621C33.4395 82.1621 27.5098 76.2442 27.5098 68.9494C27.5098 61.6547 33.4395 55.7368 40.7488 55.7368Z" fill="#F73B02"/>
<path d="M97.8375 55.7368C105.147 55.7368 111.077 61.6547 111.077 68.9494C111.077 76.2442 105.147 82.1621 97.8375 82.1621C90.5281 82.1621 84.5984 76.2442 84.5984 68.9494C84.5984 61.6547 90.5281 55.7368 97.8375 55.7368Z" fill="#F73B02"/>
<path d="M140.865 68.9494C140.865 61.6547 146.794 55.7368 154.104 55.7368C161.413 55.7368 167.343 61.6547 167.343 68.9494C167.343 76.2442 161.413 82.1621 154.104 82.1621C146.788 82.1558 140.865 76.2442 140.865 68.9494Z" fill="#F73B02"/>
<path d="M197.124 68.9494C197.124 61.6547 203.054 55.7368 210.363 55.7368C217.672 55.7368 223.602 61.6547 223.602 68.9494C223.602 76.2442 217.672 82.1621 210.363 82.1621C203.047 82.1558 197.124 76.2442 197.124 68.9494Z" fill="#F73B02"/>
<path d="M254.213 68.9494C254.213 61.6547 260.142 55.7368 267.452 55.7368C274.761 55.7368 280.691 61.6547 280.691 68.9494C280.691 76.2442 274.761 82.1621 267.452 82.1621C260.142 82.1621 254.213 76.2442 254.213 68.9494Z" fill="#FFFC20"/>
<path d="M54.608 125.305C54.608 132.6 48.6783 138.518 41.3689 138.518C34.0596 138.518 28.1299 132.6 28.1299 125.305C28.1299 118.01 34.0596 112.093 41.3689 112.093C48.6783 112.093 54.608 118.004 54.608 125.305Z" fill="#0DB73F"/>
<path d="M111.51 125.305C111.51 132.6 105.58 138.518 98.2705 138.518C90.9612 138.518 85.0315 132.6 85.0315 125.305C85.0315 118.01 90.9612 112.093 98.2705 112.093C105.58 112.093 111.51 118.004 111.51 125.305Z" fill="#F63B02"/>
<path d="M40.3375 167.621C47.6468 167.621 53.5765 173.539 53.5765 180.834C53.5765 188.128 47.6468 194.046 40.3375 194.046C33.0281 194.046 27.0984 188.128 27.0984 180.834C27.0984 173.533 33.0218 167.621 40.3375 167.621Z" fill="#0DB73F"/>
<path d="M97.2391 167.621C104.548 167.621 110.478 173.539 110.478 180.834C110.478 188.128 104.548 194.046 97.2391 194.046C89.9297 194.046 84 188.128 84 180.834C84 173.533 89.9234 167.621 97.2391 167.621Z" fill="#0DB73F"/>
<path d="M40.3375 221.703C47.6468 221.703 53.5765 227.621 53.5765 234.916C53.5765 242.211 47.6468 248.128 40.3375 248.128C33.0281 248.128 27.0984 242.211 27.0984 234.916C27.0984 227.621 33.0218 221.703 40.3375 221.703Z" fill="#0DB73F"/>
<path d="M97.4261 221.703C104.735 221.703 110.665 227.621 110.665 234.916C110.665 242.211 104.735 248.128 97.4261 248.128C90.1168 248.128 84.187 242.211 84.187 234.916C84.187 227.621 90.1104 221.703 97.4261 221.703Z" fill="#0DB73F"/>
<path d="M140.447 234.916C140.447 227.621 146.376 221.703 153.686 221.703C160.995 221.703 166.925 227.621 166.925 234.916C166.925 242.211 160.995 248.128 153.686 248.128C146.376 248.128 140.447 242.217 140.447 234.916Z" fill="#F73B02"/>
<path d="M196.713 234.916C196.713 227.621 202.642 221.703 209.952 221.703C217.261 221.703 223.191 227.621 223.191 234.916C223.191 242.211 217.261 248.128 209.952 248.128C202.636 248.128 196.713 242.217 196.713 234.916Z" fill="#F73B02"/>
<path d="M253.801 234.916C253.801 227.621 259.731 221.703 267.04 221.703C274.35 221.703 280.279 227.621 280.279 234.916C280.279 242.211 274.35 248.128 267.04 248.128C259.725 248.128 253.801 242.217 253.801 234.916Z" fill="#FFFC20"/>
<path d="M97.4261 276.202C104.735 276.202 110.665 282.12 110.665 289.415C110.665 296.71 104.735 302.627 97.4261 302.627C90.1168 302.627 84.187 296.71 84.187 289.415C84.187 282.12 90.1104 276.202 97.4261 276.202Z" fill="#0DB73F"/>
<path d="M140.447 289.415C140.447 282.12 146.376 276.202 153.686 276.202C160.995 276.202 166.925 282.12 166.925 289.415C166.925 296.71 160.995 302.627 153.686 302.627C146.376 302.627 140.447 296.71 140.447 289.415Z" fill="#F73B02"/>
<path d="M196.713 289.415C196.713 282.12 202.642 276.202 209.952 276.202C217.261 276.202 223.191 282.12 223.191 289.415C223.191 296.71 217.261 302.627 209.952 302.627C202.636 302.627 196.713 296.71 196.713 289.415Z" fill="#FFFC20"/>
<path d="M97.4261 0C104.735 0 110.665 5.9179 110.665 13.2126C110.665 20.5074 104.735 26.4253 97.4261 26.4253C90.1168 26.4253 84.187 20.5074 84.187 13.2126C84.187 5.9179 90.1104 0 97.4261 0Z" fill="#F73B02"/>
<path d="M140.447 13.2126C140.447 5.9179 146.376 0 153.686 0C160.995 0 166.925 5.9179 166.925 13.2126C166.925 20.5074 160.995 26.4253 153.686 26.4253C146.376 26.4189 140.447 20.5074 140.447 13.2126Z" fill="#FFFC20"/>
<path d="M196.713 13.2126C196.713 5.9179 202.642 0 209.952 0C217.261 0 223.191 5.9179 223.191 13.2126C223.191 20.5074 217.261 26.4253 209.952 26.4253C202.636 26.4189 196.713 20.5074 196.713 13.2126Z" fill="#FFFC20"/>
</svg>
