<svg width="340" height="181" viewBox="0 0 340 181" fill="none" xmlns="http://www.w3.org/2000/svg">
<path d="M15.7988 92.0072C15.7988 96.3598 12.2607 99.8908 7.89941 99.8908C3.53812 99.8908 0 96.3598 0 92.0072C0 87.6546 3.53812 84.1235 7.89941 84.1235C12.2607 84.1273 15.7988 87.6546 15.7988 92.0072Z" fill="#0DB73F"/>
<path d="M15.7988 124.28C15.7988 128.633 12.2607 132.164 7.89941 132.164C3.53812 132.164 0 128.633 0 124.28C0 119.928 3.53812 116.397 7.89941 116.397C12.2607 116.397 15.7988 119.928 15.7988 124.28Z" fill="#0DB73F"/>
<path d="M40.4827 116.397C44.844 116.397 48.3821 119.928 48.3821 124.28C48.3821 128.633 44.844 132.164 40.4827 132.164C36.1214 132.164 32.5833 128.633 32.5833 124.28C32.5833 119.928 36.1214 116.397 40.4827 116.397Z" fill="#0DB73F"/>
<path d="M74.5459 116.397C78.9072 116.397 82.4453 119.928 82.4453 124.28C82.4453 128.633 78.9072 132.164 74.5459 132.164C70.1846 132.164 66.6465 128.633 66.6465 124.28C66.6465 119.928 70.1846 116.397 74.5459 116.397Z" fill="#0DB73F"/>
<path d="M100.215 124.28C100.215 119.928 103.753 116.397 108.115 116.397C112.476 116.397 116.014 119.928 116.014 124.28C116.014 128.633 112.476 132.164 108.115 132.164C103.753 132.164 100.215 128.633 100.215 124.28Z" fill="#F73B02"/>
<path d="M133.788 124.28C133.788 119.928 137.326 116.397 141.687 116.397C146.048 116.397 149.586 119.928 149.586 124.28C149.586 128.633 146.048 132.164 141.687 132.164C137.326 132.164 133.788 128.633 133.788 124.28Z" fill="#F73B02"/>
<path d="M167.851 124.28C167.851 119.928 171.389 116.397 175.75 116.397C180.112 116.397 183.65 119.928 183.65 124.28C183.65 128.633 180.112 132.164 175.75 132.164C171.385 132.164 167.851 128.633 167.851 124.28Z" fill="#FFFC20"/>
<path d="M40.4827 148.67C44.844 148.67 48.3821 152.201 48.3821 156.554C48.3821 160.906 44.844 164.437 40.4827 164.437C36.1214 164.437 32.5833 160.906 32.5833 156.554C32.5833 152.197 36.1214 148.67 40.4827 148.67Z" fill="#0DB73F"/>
<path d="M74.5459 148.67C78.9072 148.67 82.4453 152.201 82.4453 156.554C82.4453 160.906 78.9072 164.437 74.5459 164.437C70.1846 164.437 66.6465 160.906 66.6465 156.554C66.6465 152.197 70.1846 148.67 74.5459 148.67Z" fill="#0DB73F"/>
<path d="M100.215 156.55C100.215 152.197 103.753 148.666 108.115 148.666C112.476 148.666 116.014 152.197 116.014 156.55C116.014 160.902 112.476 164.433 108.115 164.433C103.753 164.433 100.215 160.906 100.215 156.55Z" fill="#F73B02"/>
<path d="M133.788 156.55C133.788 152.197 137.326 148.666 141.687 148.666C146.048 148.666 149.586 152.197 149.586 156.55C149.586 160.902 146.048 164.433 141.687 164.433C137.326 164.433 133.788 160.906 133.788 156.55Z" fill="#FFFC20"/>
<path d="M15.7988 58.2605C15.7988 62.6131 12.2607 66.1441 7.89941 66.1441C3.53812 66.1441 0 62.6131 0 58.2605C0 53.9079 3.53812 50.3768 7.89941 50.3768C12.2607 50.3768 15.7988 53.9079 15.7988 58.2605Z" fill="#0DB73F"/>
<path d="M40.4827 50.3768C44.844 50.3768 48.3821 53.9079 48.3821 58.2605C48.3821 62.6131 44.844 66.1441 40.4827 66.1441C36.1214 66.1441 32.5833 62.6131 32.5833 58.2605C32.5833 53.9079 36.1214 50.3768 40.4827 50.3768Z" fill="#F73B02"/>
<path d="M74.5459 50.3768C78.9072 50.3768 82.4453 53.9079 82.4453 58.2605C82.4453 62.6131 78.9072 66.1441 74.5459 66.1441C70.1846 66.1441 66.6465 62.6131 66.6465 58.2605C66.6465 53.9079 70.1846 50.3768 74.5459 50.3768Z" fill="#F73B02"/>
<path d="M100.215 58.2606C100.215 53.908 103.753 50.377 108.115 50.377C112.476 50.377 116.014 53.908 116.014 58.2606C116.014 62.6132 112.476 66.1442 108.115 66.1442C103.753 66.1442 100.215 62.6132 100.215 58.2606Z" fill="#F73B02"/>
<path d="M133.788 58.2605C133.788 53.9079 137.326 50.3768 141.687 50.3768C146.048 50.3768 149.586 53.9079 149.586 58.2605C149.586 62.6131 146.048 66.1441 141.687 66.1441C137.326 66.1441 133.788 62.6131 133.788 58.2605Z" fill="#F73B02"/>
<path d="M167.851 58.2605C167.851 53.9079 171.389 50.3768 175.75 50.3768C180.112 50.3768 183.65 53.9079 183.65 58.2605C183.65 62.6131 180.112 66.1441 175.75 66.1441C171.385 66.1441 167.851 62.6131 167.851 58.2605Z" fill="#FFFC20"/>
<path d="M40.4827 17.1201C44.844 17.1201 48.3821 20.6512 48.3821 25.0038C48.3821 29.3563 44.844 32.8874 40.4827 32.8874C36.1214 32.8874 32.5833 29.3563 32.5833 25.0038C32.5833 20.6512 36.1214 17.1201 40.4827 17.1201Z" fill="#F73B02"/>
<path d="M74.5459 17.1201C78.9072 17.1201 82.4453 20.6512 82.4453 25.0038C82.4453 29.3563 78.9072 32.8874 74.5459 32.8874C70.1846 32.8874 66.6465 29.3563 66.6465 25.0038C66.6465 20.6512 70.1846 17.1201 74.5459 17.1201Z" fill="#F73B02"/>
<path d="M100.215 25.0039C100.215 20.6513 103.753 17.1202 108.115 17.1202C112.476 17.1202 116.014 20.6513 116.014 25.0039C116.014 29.3565 112.476 32.8875 108.115 32.8875C103.753 32.8875 100.215 29.3565 100.215 25.0039Z" fill="#F73B02"/>
<path d="M133.788 25.0038C133.788 20.6512 137.326 17.1201 141.687 17.1201C146.048 17.1201 149.586 20.6512 149.586 25.0038C149.586 29.3563 146.048 32.8874 141.687 32.8874C137.326 32.8874 133.788 29.3563 133.788 25.0038Z" fill="#FFFC20"/>
<path d="M24.3137 33.2567C28.675 33.2567 32.2131 36.7878 32.2131 41.1404C32.2131 45.4929 28.675 49.024 24.3137 49.024C19.9524 49.024 16.4143 45.4929 16.4143 41.1404C16.4143 36.7878 19.9524 33.2567 24.3137 33.2567Z" fill="#F73B02"/>
<path d="M58.377 33.2567C62.7382 33.2567 66.2764 36.7878 66.2764 41.1404C66.2764 45.4929 62.7382 49.024 58.377 49.024C54.0157 49.024 50.4775 45.4929 50.4775 41.1404C50.4775 36.7878 54.0157 33.2567 58.377 33.2567Z" fill="#F73B02"/>
<path d="M84.05 41.1404C84.05 36.7878 87.5882 33.2567 91.9495 33.2567C96.3108 33.2567 99.8489 36.7878 99.8489 41.1404C99.8489 45.4929 96.3108 49.024 91.9495 49.024C87.5844 49.0202 84.05 45.4929 84.05 41.1404Z" fill="#F73B02"/>
<path d="M117.619 41.1404C117.619 36.7878 121.157 33.2567 125.518 33.2567C129.88 33.2567 133.418 36.7878 133.418 41.1404C133.418 45.4929 129.88 49.024 125.518 49.024C121.153 49.0202 117.619 45.4929 117.619 41.1404Z" fill="#F73B02"/>
<path d="M151.682 41.1404C151.682 36.7878 155.22 33.2567 159.582 33.2567C163.943 33.2567 167.481 36.7878 167.481 41.1404C167.481 45.4929 163.943 49.024 159.582 49.024C155.22 49.024 151.682 45.4929 151.682 41.1404Z" fill="#FFFC20"/>
<path d="M24.0681 132.285C28.4294 132.285 31.9675 135.816 31.9675 140.168C31.9675 144.521 28.4294 148.052 24.0681 148.052C19.7068 148.052 16.1687 144.521 16.1687 140.168C16.1687 135.816 19.703 132.285 24.0681 132.285Z" fill="#0DB73F"/>
<path d="M58.1316 132.285C62.4929 132.285 66.031 135.816 66.031 140.168C66.031 144.521 62.4929 148.052 58.1316 148.052C53.7703 148.052 50.2322 144.521 50.2322 140.168C50.2322 135.816 53.7665 132.285 58.1316 132.285Z" fill="#0DB73F"/>
<path d="M83.8008 140.168C83.8008 135.816 87.3389 132.285 91.7002 132.285C96.0615 132.285 99.5996 135.816 99.5996 140.168C99.5996 144.521 96.0615 148.052 91.7002 148.052C87.3389 148.052 83.8008 144.525 83.8008 140.168Z" fill="#F73B02"/>
<path d="M117.373 140.168C117.373 135.816 120.911 132.285 125.273 132.285C129.634 132.285 133.172 135.816 133.172 140.168C133.172 144.521 129.634 148.052 125.273 148.052C120.908 148.052 117.373 144.525 117.373 140.168Z" fill="#F73B02"/>
<path d="M151.437 140.168C151.437 135.816 154.975 132.285 159.336 132.285C163.697 132.285 167.236 135.816 167.236 140.168C167.236 144.521 163.697 148.052 159.336 148.052C154.971 148.052 151.437 144.525 151.437 140.168Z" fill="#FFFC20"/>
<path d="M58.1316 164.803C62.4929 164.803 66.031 168.334 66.031 172.686C66.031 177.039 62.4929 180.57 58.1316 180.57C53.7703 180.57 50.2322 177.039 50.2322 172.686C50.2322 168.334 53.7665 164.803 58.1316 164.803Z" fill="#0DB73F"/>
<path d="M83.8008 172.686C83.8008 168.334 87.3389 164.803 91.7002 164.803C96.0615 164.803 99.5996 168.334 99.5996 172.686C99.5996 177.039 96.0615 180.57 91.7002 180.57C87.3389 180.57 83.8008 177.039 83.8008 172.686Z" fill="#F73B02"/>
<path d="M117.373 172.686C117.373 168.334 120.911 164.803 125.273 164.803C129.634 164.803 133.172 168.334 133.172 172.686C133.172 177.039 129.634 180.57 125.273 180.57C120.908 180.57 117.373 177.039 117.373 172.686Z" fill="#FFFC20"/>
<path d="M58.1316 0C62.4929 0 66.031 3.53106 66.031 7.88364C66.031 12.2362 62.4929 15.7673 58.1316 15.7673C53.7703 15.7673 50.2322 12.2362 50.2322 7.88364C50.2322 3.53106 53.7665 0 58.1316 0Z" fill="#F73B02"/>
<path d="M83.8008 7.88364C83.8008 3.53106 87.3389 0 91.7002 0C96.0615 0 99.5996 3.53106 99.5996 7.88364C99.5996 12.2362 96.0615 15.7673 91.7002 15.7673C87.3389 15.7635 83.8008 12.2362 83.8008 7.88364Z" fill="#FFFC20"/>
<path d="M117.373 7.88364C117.373 3.53106 120.911 0 125.273 0C129.634 0 133.172 3.53106 133.172 7.88364C133.172 12.2362 129.634 15.7673 125.273 15.7673C120.908 15.7635 117.373 12.2362 117.373 7.88364Z" fill="#FFFC20"/>
<path d="M24.9265 104V78.5455H35.4414C37.3472 78.5455 38.992 78.9183 40.3757 79.6641C41.7678 80.4015 42.8408 81.4331 43.5948 82.7589C44.3488 84.0763 44.7259 85.6093 44.7259 87.3576C44.7259 89.1142 44.3406 90.6513 43.57 91.9688C42.8076 93.2779 41.718 94.293 40.3011 95.0138C38.8842 95.7347 37.2022 96.0952 35.255 96.0952H28.767V91.2479H34.1115C35.0395 91.2479 35.8143 91.0863 36.4357 90.7631C37.0655 90.44 37.5419 89.9884 37.8651 89.4084C38.1882 88.8201 38.3498 88.1365 38.3498 87.3576C38.3498 86.5704 38.1882 85.891 37.8651 85.3192C37.5419 84.7392 37.0655 84.2918 36.4357 83.9769C35.806 83.6621 35.0313 83.5046 34.1115 83.5046H31.0788V104H24.9265ZM53.3384 104H46.7262L55.3146 78.5455H63.5053L72.0937 104H65.4815L59.5032 84.9588H59.3043L53.3384 104ZM52.4559 93.9822H66.277V98.6555H52.4559V93.9822ZM87.393 104H77.9843V78.5455H87.3806C89.9741 78.5455 92.2072 79.055 94.0798 80.0742C95.9607 81.0851 97.4108 82.5434 98.43 84.4492C99.4491 86.3467 99.9587 88.6171 99.9587 91.2603C99.9587 93.9118 99.4491 96.1905 98.43 98.0962C97.4191 100.002 95.9732 101.464 94.0923 102.484C92.2113 103.495 89.9783 104 87.393 104ZM84.1366 98.755H87.1569C88.5821 98.755 89.7877 98.5147 90.7737 98.0341C91.768 97.5452 92.5179 96.7539 93.0234 95.6602C93.5371 94.5581 93.794 93.0915 93.794 91.2603C93.794 89.4291 93.5371 87.9708 93.0234 86.8853C92.5096 85.7915 91.7515 85.0044 90.7489 84.5238C89.7545 84.0349 88.5282 83.7905 87.0699 83.7905H84.1366V98.755ZM106.701 104V78.5455H124.449V83.5419H112.853V88.7621H123.542V93.771H112.853V99.0036H124.449V104H106.701ZM131.452 104V78.5455H137.605V99.0036H148.194V104H131.452ZM156.729 104H153.497L162.844 78.5455H166.026L175.372 104H172.141L164.534 82.5724H164.335L156.729 104ZM157.922 94.0568H170.948V96.7912H157.922V94.0568ZM182.487 104V78.5455H197.75V81.2798H185.57V89.8807H196.607V92.6151H185.57V104H182.487ZM206.179 104V78.5455H214.78C216.769 78.5455 218.401 78.8852 219.677 79.5646C220.953 80.2358 221.898 81.1597 222.511 82.3363C223.124 83.5129 223.431 84.8511 223.431 86.3509C223.431 87.8506 223.124 89.1805 222.511 90.3406C221.898 91.5006 220.957 92.412 219.69 93.0749C218.422 93.7295 216.802 94.0568 214.83 94.0568H207.87V91.2727H214.73C216.089 91.2727 217.183 91.0739 218.012 90.6761C218.849 90.2784 219.453 89.715 219.826 88.9858C220.207 88.2483 220.398 87.37 220.398 86.3509C220.398 85.3317 220.207 84.4409 219.826 83.6786C219.445 82.9163 218.836 82.328 217.999 81.9137C217.162 81.4911 216.056 81.2798 214.681 81.2798H209.262V104H206.179ZM218.161 92.5653L224.425 104H220.845L214.681 92.5653H218.161ZM234.799 78.5455V104H231.717V78.5455H234.799ZM264.613 86.5H261.53C261.348 85.6134 261.029 84.8345 260.573 84.1634C260.126 83.4922 259.579 82.9287 258.933 82.473C258.295 82.009 257.586 81.661 256.807 81.429C256.028 81.197 255.216 81.081 254.371 81.081C252.83 81.081 251.434 81.4704 250.183 82.2493C248.94 83.0282 247.949 84.1758 247.212 85.6921C246.483 87.2085 246.118 89.0687 246.118 91.2727C246.118 93.4768 246.483 95.337 247.212 96.8533C247.949 98.3697 248.94 99.5173 250.183 100.296C251.434 101.075 252.83 101.464 254.371 101.464C255.216 101.464 256.028 101.348 256.807 101.116C257.586 100.884 258.295 100.541 258.933 100.085C259.579 99.6209 260.126 99.0533 260.573 98.3821C261.029 97.7027 261.348 96.9238 261.53 96.0455H264.613C264.381 97.3464 263.958 98.5105 263.345 99.538C262.732 100.565 261.969 101.44 261.058 102.161C260.146 102.873 259.123 103.416 257.988 103.789C256.861 104.162 255.655 104.348 254.371 104.348C252.2 104.348 250.27 103.818 248.579 102.757C246.889 101.696 245.559 100.188 244.59 98.233C243.62 96.2775 243.135 93.9574 243.135 91.2727C243.135 88.5881 243.62 86.268 244.59 84.3125C245.559 82.357 246.889 80.849 248.579 79.7884C250.27 78.7277 252.2 78.1974 254.371 78.1974C255.655 78.1974 256.861 78.3839 257.988 78.7567C259.123 79.1296 260.146 79.6765 261.058 80.3974C261.969 81.11 262.732 81.98 263.345 83.0075C263.958 84.0266 264.381 85.1908 264.613 86.5ZM273.788 104H270.556L279.903 78.5455H283.084L292.431 104H289.199L281.593 82.5724H281.394L273.788 104ZM274.981 94.0568H288.006V96.7912H274.981V94.0568Z" fill="#0F172A"/>
</svg>
